<svg width="259" height="286" viewBox="0 0 259 286" fill="none" xmlns="http://www.w3.org/2000/svg">
<path d="M180.098 183.482C179.54 174.379 191.529 172.172 192.644 182.93C195.432 206.379 201.287 266.242 201.845 274.518C202.681 284.725 192.365 289.415 184.001 280.863C182.049 278.656 128.797 224.31 124.894 220.172C120.991 215.759 118.76 215.759 113.742 217.69C111.511 218.517 56.3078 238.931 30.9365 248.311C13.0929 254.932 5.28628 243.069 14.2081 230.38C27.0332 211.896 62.9992 162.516 64.1144 160.585C67.1813 155.896 66.9025 153.137 61.6052 146.792C57.7019 142.102 23.4087 105.964 16.1597 97.4119C10.3048 90.2394 -1.96268 80.584 0.26777 70.377C1.94061 62.3769 9.18957 59.0665 16.7173 60.4458C26.4756 62.101 86.6977 80.8599 103.705 84.1703C107.329 84.9979 109.56 80.584 115.415 71.4804C134.095 42.5145 150.266 19.0658 157.793 9.13463C168.109 -4.38282 182.328 -0.520687 183.722 16.583C185.395 38.6523 189.298 82.2392 191.529 101.826C192.086 107.343 194.317 110.929 199.057 112.585C213.276 117.55 223.034 121.688 258.164 126.93C258.721 126.93 259 127.481 259 128.033C256.77 140.723 257.327 151.482 257.606 155.068C257.606 155.62 257.048 156.171 256.491 155.896C237.811 152.585 199.335 145.413 175.916 133.275C170.061 130.24 165.879 124.723 164.485 118.102C163.369 112.585 161.139 69.2735 160.303 53.5491C150.544 68.4459 128.24 102.929 126.846 105.136C123.5 110.102 114.857 115.343 102.868 112.033C97.0136 110.378 59.9323 99.6188 48.7801 96.3084C57.1443 107.067 84.4673 136.033 87.8129 140.171C91.995 145.137 95.3407 150.654 95.0619 155.896C94.7831 161.413 90.0434 166.103 86.9765 170.516C83.0732 176.31 55.1926 209.138 47.9436 219.897C61.884 214.931 106.493 197.276 113.184 194.793C122.943 191.482 129.355 193.965 133.537 199.207C144.689 212.448 174.8 243.069 182.607 253.828L180.098 183.482Z" fill="#F1C400"/>
</svg>
