<svg width="166" height="29" viewBox="0 0 166 29" fill="none" xmlns="http://www.w3.org/2000/svg">
<path d="M43.7435 9.53272C43.7435 8.01463 44.4931 7.52348 45.5294 7.52348H45.9924C47.0727 7.52348 47.8224 7.9923 47.8224 9.53272V19.2664C47.8224 22.749 49.5642 24.8029 52.5848 24.8029C55.0762 24.8029 57.0164 23.3741 58.0527 21.2533V21.2309V9.53272C58.0527 8.01463 58.8023 7.52348 59.8386 7.52348H60.3016C61.3819 7.52348 62.1316 7.9923 62.1316 9.53272V27.5042C62.1316 27.8168 61.4701 28.0847 60.6764 28.0847C59.4417 28.0847 58.1409 27.5042 58.0747 24.8922C56.6636 26.9461 54.5029 28.4196 51.4383 28.4196C46.1688 28.4196 43.7655 24.8029 43.7655 19.7798V9.53272H43.7435ZM65.1742 26.0978C65.1742 27.6159 65.9238 28.0624 67.0042 28.0624H67.4672C68.5035 28.0624 69.2972 27.5935 69.2972 26.0978V18.9985C69.2972 14.3326 70.576 11.1624 73.8171 11.1624C74.9415 11.1624 75.7132 11.542 76.3526 12.0331C76.4408 12.1224 77.5873 11.4973 77.5873 9.88992C77.5873 8.21555 76.3967 7.21093 74.3242 7.21093C71.7886 7.21093 70.135 8.55043 69.2752 11.0285C69.2311 8.1709 67.9082 7.50116 66.6955 7.50116C65.8577 7.50116 65.1963 7.74673 65.1963 8.0816V26.0978H65.1742ZM88.0601 7.21093C81.8867 7.21093 77.5873 11.6089 77.5873 17.7929C77.5873 24.0439 81.8646 28.4419 88.0381 28.4419C94.1674 28.4419 98.4889 24.0439 98.4889 17.8599C98.4668 11.6759 94.1454 7.21093 88.0601 7.21093ZM88.016 25.0485C84.2017 25.0485 81.3355 21.9453 81.3355 17.7929C81.3355 13.6405 84.2017 10.6266 88.016 10.6266C91.8745 10.6266 94.6525 13.6851 94.6525 17.8822C94.6525 21.99 91.8304 25.0485 88.016 25.0485ZM100.716 26.0978C100.716 27.6159 101.465 28.0624 102.546 28.0624H103.009C104.045 28.0624 104.839 27.5935 104.839 26.0978V14.3995C105.831 12.301 107.815 10.8722 110.439 10.8722C113.349 10.8722 115.047 12.9707 115.047 16.3641V26.0978C115.047 27.6159 115.797 28.0624 116.877 28.0624H117.34C118.376 28.0624 119.17 27.5935 119.17 26.0978V15.8507C119.17 10.8499 116.723 7.21093 111.453 7.21093C108.388 7.21093 106.184 8.72902 104.817 10.7829C104.684 8.14858 103.45 7.50116 102.259 7.50116C101.421 7.50116 100.76 7.76905 100.76 8.0816V26.0978H100.716ZM121.97 2.34411C121.97 3.81755 122.874 4.64357 124.417 4.64357C125.983 4.64357 126.865 3.83988 126.865 2.34411C126.865 0.82602 125.983 0 124.462 0C122.896 0 121.97 0.848345 121.97 2.34411ZM122.345 26.0978C122.345 27.6159 123.139 28.0624 124.219 28.0624H124.638C125.718 28.0624 126.468 27.5935 126.468 26.0978V9.53272C126.468 7.96998 125.718 7.52348 124.638 7.52348H124.219C123.139 7.52348 122.345 8.03695 122.345 9.53272V26.0978ZM139.344 7.21093C133.369 7.21093 128.981 11.6536 128.981 17.7929C128.981 23.9992 133.325 28.4419 139.344 28.4419C145.231 28.4419 147.877 24.7583 147.877 22.9053C147.877 21.097 145.562 20.8068 145.429 21.0077C144.525 23.2402 142.783 24.9592 139.41 24.9592C135.64 24.9592 132.862 21.9453 132.862 17.7929C132.862 13.6851 135.684 10.6936 139.41 10.6936C142.806 10.6936 144.503 12.4126 145.429 14.6451C145.562 14.846 147.877 14.5112 147.877 12.7921C147.877 10.9169 145.275 7.21093 139.344 7.21093ZM150.897 22.2356C150.677 22.2132 149.31 22.883 149.31 24.1332C149.31 26.0531 152.176 28.4196 157.732 28.4196C162.869 28.4196 166.022 25.9415 166.022 22.0793C166.022 17.7259 161.745 16.7883 158.68 16.1186C155.417 15.4042 153.675 14.98 153.675 13.127C153.675 11.4527 155.175 10.3587 157.975 10.3587C160.488 10.3587 162.561 11.5196 163.795 13.194L163.817 13.2163C163.994 13.2833 165.471 12.5243 165.471 11.2741C165.471 9.37644 162.891 7.21093 157.798 7.21093C152.948 7.21093 149.839 9.77829 149.839 13.5512C149.839 17.8376 153.896 18.7529 156.85 19.378C160.113 20.0924 161.987 20.4719 161.987 22.5258C161.987 24.2002 160.422 25.2494 157.6 25.2494C154.469 25.2494 152.242 23.9546 150.897 22.2579C150.919 22.2356 150.897 22.2356 150.897 22.2356ZM39.5323 17.5027C41.5166 16.833 41.4946 15.8953 41.2741 14.8907C40.6567 11.5866 38.011 7.23326 32.1462 7.23326C26.2593 7.23326 21.96 11.8099 21.96 17.9269C21.96 24.2225 26.1932 28.4642 32.4769 28.4642C37.9007 28.4642 40.9654 25.6513 40.9654 23.8876C40.9654 22.2802 39.2677 21.8337 38.8929 21.8114C38.8488 21.8114 38.8047 21.8337 38.7826 21.8784C37.7464 23.6644 36.0046 25.1825 32.5651 25.1825C28.8169 25.1825 26.105 22.7044 25.7743 19.0208C25.6861 18.0608 25.6861 17.1008 25.8184 16.1186C26.3255 12.7698 28.839 10.3811 32.1241 10.3811C35.0345 10.3811 37.0188 12.1447 37.5921 14.9353C37.5921 14.98 37.57 15.047 37.5259 15.0693C34.1746 16.632 28.0011 16.5427 27.4499 16.5204C27.4279 16.5204 27.4058 16.5427 27.4058 16.5651C27.2515 17.2794 27.2736 18.3957 27.4058 19.1101C27.4058 19.1324 27.4279 19.1547 27.472 19.1547C31.3304 19.3333 35.0786 18.9761 39.5323 17.5027Z" fill="#1D428A"/>
<path d="M14.2432 20.7621C14.1991 20.0254 15.1471 19.8468 15.2353 20.7175C15.4558 22.6151 15.9188 27.4596 15.9629 28.1293C16.0291 28.9553 15.2133 29.3349 14.5518 28.6428C14.3975 28.4642 10.1863 24.0662 9.87764 23.7313C9.56897 23.3741 9.39259 23.3741 8.99572 23.5304C8.81934 23.5974 4.45382 25.2494 2.44744 26.0085C1.03636 26.5443 0.419017 25.5843 1.12456 24.5573C2.13877 23.0616 4.98297 19.0654 5.07116 18.9091C5.31369 18.5296 5.29164 18.3064 4.87273 17.7929C4.56406 17.4134 1.85214 14.4888 1.27889 13.7968C0.815883 13.2163 -0.154233 12.4349 0.0221519 11.6089C0.15444 10.9615 0.727691 10.6936 1.32299 10.8052C2.09467 10.9392 6.85706 12.4573 8.20199 12.7252C8.48862 12.7921 8.665 12.4349 9.12801 11.6982C10.6052 9.3541 11.884 7.45649 12.4793 6.65279C13.2951 5.55887 14.4195 5.87142 14.5298 7.25556C14.6621 9.04155 14.9707 12.5689 15.1471 14.1539C15.1912 14.6004 15.3676 14.8907 15.7424 15.0246C16.8669 15.4265 17.6386 15.7613 20.4166 16.1855C20.4607 16.1855 20.4828 16.2302 20.4828 16.2748C20.3064 17.3018 20.3505 18.1724 20.3725 18.4626C20.3725 18.5073 20.3284 18.5519 20.2843 18.5296C18.8071 18.2617 15.7645 17.6813 13.9124 16.699C13.4494 16.4534 13.1187 16.0069 13.0085 15.4711C12.9203 15.0246 12.7439 11.5196 12.6778 10.2471C11.9061 11.4526 10.1422 14.2432 10.032 14.4218C9.7674 14.8237 9.08391 15.2479 8.13585 14.98C7.67284 14.846 4.74044 13.9753 3.85852 13.7075C4.51996 14.5781 6.68067 16.9222 6.94525 17.2571C7.27597 17.659 7.54055 18.1055 7.5185 18.5296C7.49645 18.9761 7.12163 19.3556 6.87911 19.7128C6.57043 20.1817 4.36562 22.8383 3.79237 23.709C4.89478 23.3071 8.42247 21.8784 8.95162 21.6774C9.72331 21.4095 10.2304 21.6105 10.5611 22.0346C11.4431 23.1062 13.8243 25.5843 14.4416 26.455L14.2432 20.7621Z" fill="#F1C400"/>
</svg>
