<svg width="62" height="58" viewBox="0 0 62 58" fill="none" xmlns="http://www.w3.org/2000/svg">
<g clip-path="url(#clip0)">
<path d="M36.7368 34.491C37.1315 32.8789 38.0602 31.3486 39.488 30.2155C40.9158 29.0823 42.599 28.5099 44.259 28.4866C43.8643 30.1103 42.9357 31.629 41.5078 32.7621C40.08 33.9069 38.3968 34.4793 36.7368 34.491Z" fill="white"/>
<path d="M60.0348 15.5199L34.2295 24.5616C32.4302 25.1924 29.4701 25.1924 27.6592 24.5616L1.98162 15.5315C0.170725 14.9007 -0.525773 15.4615 0.426108 16.7815L15.633 36.3485C15.3428 34.3976 14.7972 32.108 15.6098 29.0941L20.2183 41.7455L20.2763 41.7104C21.9595 40.7525 23.5499 39.6311 24.8384 38.7199L25.7554 38.0891L29.6907 35.0868C33.8464 31.8043 39.0237 27.7273 43.6555 26.1503C47.5675 24.8186 51.3982 24.8069 54.3699 26.0451L61.5671 16.7815C62.5422 15.4615 61.8341 14.889 60.0348 15.5199Z" fill="#FF4D00"/>
<path d="M35.5298 51.5463C35.228 51.8149 35.0074 52.0135 35.0074 52.0135C32.976 53.7424 30.8981 55.1559 28.8202 56.2774L29.2845 57.0133C30.2364 58.3334 31.7919 58.3334 32.7438 57.0133L36.1682 51.5463H35.5298Z" fill="#272425"/>
<path d="M36.1562 51.5463L36.9339 50.2964C36.5044 50.6819 35.9356 51.1842 35.5177 51.5463H36.1562Z" fill="#272425"/>
<path d="M17.4326 55.9971C14.368 56.0438 11.4775 54.7939 9.66663 52.6444C8.80761 51.6281 7.84412 49.9926 7.84412 47.7965C7.84412 47.5862 7.85573 47.3526 7.87895 47.1306C8.04147 45.1564 8.69153 43.1705 9.79432 41.757C9.82915 42.2359 9.88719 42.7032 10.0265 43.1004C10.7462 45.2382 12.0463 46.1844 13.0098 46.5932C14.7743 47.3409 16.9567 47.0722 19.7775 45.7638C19.8123 45.869 19.8355 45.9624 19.8819 46.0676L20.0096 46.3596L20.2186 46.5816C20.6597 47.0605 21.1589 47.5044 21.6464 47.925C21.9947 48.2287 22.3081 48.5091 22.5751 48.7777C22.5635 48.9296 22.5519 49.1048 22.5402 49.245C22.517 49.5137 22.4822 49.8174 22.4822 50.1211C22.4822 50.6118 22.5519 51.1375 22.784 51.6631L22.8305 51.7683L23.376 52.6444C23.7823 53.2986 24.177 53.9294 24.5021 54.5602C22.1804 55.4597 19.8007 55.962 17.4326 55.9971ZM58.8975 33.4045C57.1678 26.6408 50.4931 25.3207 44.1201 27.4936C38.0373 29.5495 30.5616 36.4885 26.5567 39.2571C25.2334 40.1683 23.1671 41.6986 20.9847 42.9485C17.2236 45.098 13.1027 46.4414 11.7561 42.4229C11.3034 41.0678 11.8258 37.7735 13.4625 37.7385C9.12104 37.8436 6.48595 42.1775 6.06805 46.9554C5.53407 53.1 10.8623 58.1115 17.4674 58.0063C20.9731 57.9596 24.1422 57.0368 26.963 55.6933C29.7026 54.3967 32.0939 52.6795 34.1253 50.9506C38.4901 47.2241 43.0986 42.1542 45.5015 43.9298C45.5015 43.9298 50.4118 47.0138 42.6226 52.8547L42.6342 52.9832C44.863 53.4855 47.2427 52.5743 49.1929 51.4879C50.7833 50.6001 52.3504 49.5604 53.6041 48.1352C56.0883 45.2849 57.9688 42.6331 58.9439 38.8599C59.2573 37.6333 59.2109 34.6428 58.8975 33.4045Z" fill="#FF4D00"/>
<path d="M25.5936 34.491C25.1989 32.8789 24.2702 31.3486 22.8424 30.2155C21.4146 29.0823 19.7314 28.5099 18.0714 28.4866C18.4661 30.1103 19.4064 31.629 20.8226 32.7621C22.2388 33.9069 23.9336 34.4793 25.5936 34.491Z" fill="white"/>
<path d="M21.0433 29.0708C21.0433 29.0708 22.0417 32.1081 22.3783 32.4352C22.7149 31.5941 22.9819 29.3745 22.9819 29.3745L21.0433 29.0708Z" fill="#FF4D00"/>
<path d="M33.7887 2.83332C31.9894 2.17914 30.1785 2.23755 28.4372 2.50623C28.0658 2.57632 27.4273 2.845 27.1371 2.845C26.9282 2.63473 26.754 2.42446 26.8005 2.30764C27.5318 2.30764 27.7524 2.1441 28.1819 1.53664C28.8784 1.53664 29.4588 2.41278 30.4687 1.39646L30.55 1.3731C31.1188 1.94551 32.0126 2.12073 32.7787 1.54833C33.3127 1.81701 33.1154 2.19082 34.2646 2.33101C34.1485 2.55296 33.986 2.78659 33.7887 2.83332ZM33.2315 3.69777L33.1734 3.70945C32.8716 3.62768 32.5814 3.54591 32.2912 3.47582L32.2796 3.40573C32.5002 3.18377 32.3492 3.04359 32.3492 2.88005C32.4885 2.88005 33.1386 2.9735 33.4172 3.16041C33.3127 3.30059 33.185 3.38236 33.2315 3.69777ZM30.8286 2.85668L30.7589 2.72819C30.9911 2.68146 31.4786 2.65809 31.8385 2.80996C31.8269 3.00855 31.8153 3.19546 31.792 3.40573L31.7224 3.41741C31.409 3.38236 31.0839 3.359 30.7705 3.33564C30.8402 3.13705 30.8402 2.98518 30.8286 2.85668ZM30.2481 3.359C29.9347 3.37068 29.6097 3.39405 29.2963 3.42909C29.2266 3.21882 29.1686 3.00855 29.1221 2.80996C29.4356 2.73987 29.8302 2.73987 30.2249 2.7165L30.2714 2.77491C30.0392 3.04359 30.3294 3.18377 30.2481 3.359ZM30.4339 4.13C29.6445 4.13 29.0061 4.01318 28.3908 3.97813L28.3676 3.94309C28.8668 3.69777 32.1055 3.45246 32.6046 3.95477C32.4189 4.13 30.5964 4.13 30.4339 4.13ZM27.6014 3.19546C27.6014 3.00855 28.4256 2.91509 28.6578 2.88005C28.6694 3.07864 28.6926 3.27723 28.7158 3.4875C28.5882 3.616 27.8684 3.68609 27.7756 3.69777C27.7291 3.45246 27.764 3.26555 27.6014 3.19546ZM34.4387 1.61842C34.311 2.36605 33.185 1.82869 33.185 1.40815C33.9976 1.13946 33.2895 0.742284 33.2895 0.707239C33.3824 0.0530598 32.1635 0.496967 32.6046 1.25628C32.3028 1.86373 30.9562 1.56001 30.8053 1.06937C31.2813 0.835739 31.0839 0.485285 30.7589 0.356786C30.7357 0.25165 30.7009 0.134832 30.6893 0.0180145C30.341 -0.0170308 30.2597 -0.0403943 30.2597 0.345104C29.807 0.64883 29.8186 0.730603 30.2249 1.15115C29.9463 1.71187 28.6346 1.67683 28.414 1.23292C28.8551 0.870784 28.5533 0.637148 28.1819 0.602103C27.8568 -0.133849 26.9746 1.39646 27.8336 1.39646C27.8336 1.91046 26.9398 2.09737 26.6031 1.92214C26.5451 1.39646 26.3129 1.19787 25.9647 1.53664C25.6164 1.60674 25.1869 1.23292 25.036 1.54833C25.0941 1.67683 26.4754 2.62305 26.8817 3.19546C27.7291 4.80754 28.2167 4.48045 30.2481 4.5739C31.2116 4.55054 32.5466 4.5739 33.5681 4.23513C33.7771 3.80291 33.986 3.24218 34.253 2.9735C34.4852 2.38941 35.8433 1.79364 35.8433 1.5016C35.6112 1.40815 34.5316 1.45487 34.4387 1.61842Z" fill="#272425"/>
<path d="M28.1473 2.23735L28.2518 2.37753C28.9483 2.23735 28.1473 1.55981 28.1473 2.23735Z" fill="#272425"/>
<path d="M32.604 2.37767H32.7201C33.4514 1.89872 31.8262 1.85199 32.604 2.37767Z" fill="#272425"/>
<path d="M30.6083 1.73547L30.3877 1.75884C30.2949 1.89902 30.202 1.93406 30.4342 2.1677C30.7476 2.17938 30.7824 1.87565 30.6083 1.73547Z" fill="#272425"/>
<path d="M12.9976 15.2509L11.6278 10.9287L11.1751 11.0806L11.8832 14.737C11.9877 15.2276 11.7787 15.7299 11.2912 15.8818L11.001 15.9752L10.7804 15.2509L10.9197 15.2159C11.1055 15.1575 11.1287 14.9823 11.0938 14.8304L10.2697 10.5782L12.1966 9.95911L13.7986 14.994L12.9976 15.2509Z" fill="#272425"/>
<path d="M17.5946 14.0242L16.8981 10.9519L16.5963 14.2578L15.7489 14.4564L14.5532 9.29308L15.3658 9.10618L16.0739 12.1668L16.3757 8.87254L17.2231 8.67395L18.4072 13.8256L17.5946 14.0242Z" fill="#272425"/>
<path d="M21.96 13.2884L21.2519 13.3935C20.7644 13.4753 20.3 13.1249 20.2188 12.6342L19.6732 9.0596C19.6035 8.55728 19.9402 8.09001 20.4277 8.01992L21.1358 7.9031C21.6234 7.83301 22.0877 8.17178 22.169 8.66242L22.2735 9.32828L21.4493 9.45678L21.368 8.94278C21.3448 8.79092 21.2171 8.65074 21.043 8.68578L20.7528 8.73251C20.567 8.76755 20.4974 8.9311 20.5206 9.08296L21.0198 12.3539C21.043 12.5057 21.1591 12.6459 21.3448 12.6109L21.635 12.5641C21.8207 12.5408 21.8904 12.3655 21.8672 12.2137L21.7975 11.7698L22.6217 11.6413L22.7146 12.2254C22.7842 12.7394 22.4476 13.2066 21.96 13.2884Z" fill="#272425"/>
<path d="M27.0779 11.7467L26.9618 10.4033C26.9154 9.90094 26.4859 9.52712 25.9867 9.57385L25.2206 9.64394L25.0465 7.52954L24.2223 7.59963L24.6634 12.8681L26.2537 12.7396C26.7529 12.6812 27.1244 12.249 27.0779 11.7467ZM26.2421 11.6649C26.2537 11.8168 26.1725 11.9803 25.9867 11.992L25.4296 12.0387L25.2903 10.3799L25.8475 10.3332C26.0332 10.3215 26.1493 10.4617 26.1493 10.6135L26.2421 11.6649Z" fill="#272425"/>
<path d="M31.4551 12.541L31.3738 7.24915L29.7835 7.27251C29.2843 7.28419 28.878 7.69305 28.8896 8.19537L28.9013 9.24673C28.9013 9.51541 29.0173 9.714 29.2031 9.8425C29.0173 9.971 28.9129 10.1696 28.9129 10.4616L28.9477 12.576L29.7835 12.5644L29.7603 10.6018C29.7603 10.4383 29.8531 10.2864 30.0389 10.2864L30.5845 10.2747L30.6193 12.541H31.4551ZM30.5728 9.52709L30.0273 9.53877C29.8415 9.53877 29.7487 9.38691 29.7371 9.23505L29.7254 8.33555C29.7254 8.18369 29.8183 8.03182 30.004 8.02014L30.5496 8.00846L30.5728 9.52709Z" fill="#272425"/>
<path d="M36.7376 12.7978L36.9233 10.5315L35.925 10.4497L35.7392 12.716L34.9034 12.6459L35.3329 7.37744L36.1687 7.43585L35.983 9.70212L36.9813 9.78389L37.1671 7.5293L37.9912 7.58771L37.5733 12.8679L36.7376 12.7978Z" fill="#272425"/>
<path d="M42.1931 12.6692L42.7503 9.09457C42.8315 8.59226 42.4949 8.13667 41.9957 8.05489L41.2876 7.93808C40.8001 7.8563 40.3357 8.19507 40.2545 8.69739L39.6973 12.272C39.616 12.7626 39.9527 13.2299 40.4518 13.3117L41.1599 13.4168C41.6475 13.5103 42.1118 13.1715 42.1931 12.6692ZM41.3921 12.3888C41.3689 12.5407 41.2412 12.6692 41.0671 12.6458L40.7768 12.5991C40.5911 12.5641 40.5215 12.4005 40.5447 12.2487L41.0554 8.97775C41.0787 8.82589 41.1947 8.68571 41.3805 8.72075L41.6707 8.76748C41.8564 8.80253 41.9261 8.96607 41.9028 9.11793L41.3921 12.3888Z" fill="#272425"/>
<path d="M47.1606 11.513L47.4624 10.1929C47.5785 9.71397 47.2767 9.21166 46.7891 9.10652L45.2336 8.74438L44.038 13.896L44.8505 14.083L45.3265 12.0153L46.0694 12.1905C46.557 12.3073 47.0445 12.0036 47.1606 11.513ZM46.3828 11.1742C46.348 11.3261 46.2203 11.4546 46.0346 11.4078L45.489 11.2793L45.8605 9.65556L46.4061 9.78406C46.5802 9.81911 46.6498 10.006 46.615 10.1462L46.3828 11.1742Z" fill="#272425"/>
<path d="M51.0032 15.8235L51.63 10.4733L50.5156 10.1228L47.9734 14.8656L48.7628 15.1226L49.2039 14.3049L50.3067 14.6553L50.2022 15.5782L51.0032 15.8235ZM50.3995 13.896L49.5753 13.6273L50.6317 11.6531L50.6433 11.5947L50.6781 11.6064L50.6549 11.6648L50.3995 13.896Z" fill="#272425"/>
<path d="M22.854 51.7682L22.8076 51.6631C22.5638 51.1374 22.5058 50.6117 22.5058 50.1211C22.5058 49.8174 22.529 49.5137 22.5638 49.245C22.5638 49.1048 22.587 48.9296 22.5986 48.7777C22.3316 48.509 22.0182 48.2287 21.67 47.9249C21.1824 47.5044 20.6832 47.0488 20.2421 46.5815L20.0332 46.3596L19.9055 46.0675C19.8591 45.9624 19.8474 45.8689 19.801 45.7638C16.9802 47.0722 14.7978 47.3408 13.0334 46.5932C12.0699 46.1844 10.7698 45.2498 10.05 43.1004C9.91074 42.7032 9.8527 42.2359 9.81787 41.757C8.71508 43.1821 8.07663 45.1564 7.9025 47.1306C7.87928 47.3525 7.86768 47.5862 7.86768 47.7964C7.86768 50.0043 8.83117 51.6397 9.67857 52.6444C11.4895 54.7821 14.3799 56.0321 17.4445 55.997C19.8126 55.962 22.1923 55.4714 24.5256 54.5602C24.2006 53.9294 23.8059 53.2986 23.3996 52.6444L22.854 51.7682Z" fill="white"/>
</g>
<defs>
<clipPath id="clip0">
<rect width="62" height="58" fill="white"/>
</clipPath>
</defs>
</svg>
