<svg width="62" height="58" fill="none" xmlns="http://www.w3.org/2000/svg"><g clip-path="url(#clip0)"><path d="M36.737 34.491a7.846 7.846 0 012.751-4.276c1.428-1.133 3.111-1.705 4.771-1.728a7.805 7.805 0 01-2.751 4.275c-1.428 1.145-3.111 1.717-4.771 1.729z" fill="#fff"/><path d="M60.035 15.52L34.23 24.562c-1.8.63-4.76.63-6.57 0l-25.678-9.03C.17 14.9-.526 15.461.426 16.782l15.207 19.567c-.29-1.951-.836-4.241-.023-7.255l4.608 12.651.058-.035c1.683-.958 3.274-2.079 4.562-2.99l.917-.63 3.936-3.003c4.155-3.283 9.333-7.36 13.965-8.937 3.912-1.331 7.742-1.343 10.714-.105l7.197-9.264c.975-1.32.267-1.892-1.532-1.261z" fill="#FF4D00"/><path d="M35.53 51.546l-.523.468a35.81 35.81 0 01-6.187 4.263l.465.736c.951 1.32 2.507 1.32 3.459 0l3.424-5.467h-.638zm.626 0l.778-1.25c-.43.386-.998.888-1.416 1.25h.638z" fill="#272425"/><path d="M17.433 55.997c-3.065.047-5.956-1.203-7.766-3.353-.86-1.016-1.823-2.651-1.823-4.847 0-.21.012-.444.035-.666.162-1.975.813-3.96 1.915-5.374.035.479.093.946.232 1.343.72 2.138 2.02 3.084 2.984 3.493 1.764.748 3.947.48 6.768-.83.034.106.058.2.104.305l.128.292.209.222c.44.478.94.922 1.427 1.343.349.304.662.584.93.853-.012.152-.024.327-.036.467-.023.269-.058.572-.058.876 0 .49.07 1.017.302 1.542l.047.105.545.876c.406.655.801 1.285 1.126 1.916-2.322.9-4.701 1.402-7.07 1.437zm41.465-22.593c-1.73-6.763-8.405-8.083-14.778-5.91-6.083 2.055-13.558 8.995-17.563 11.763-1.324.911-3.39 2.442-5.572 3.692-3.761 2.149-7.882 3.492-9.229-.526-.453-1.355.07-4.65 1.707-4.684-4.342.105-6.977 4.439-7.395 9.216-.534 6.145 4.794 11.157 11.4 11.051 3.505-.046 6.674-.97 9.495-2.313 2.74-1.296 5.13-3.014 7.162-4.742 4.365-3.727 8.974-8.797 11.377-7.021 0 0 4.91 3.084-2.88 8.925l.012.128c2.229.503 4.609-.409 6.559-1.495 1.59-.888 3.157-1.928 4.411-3.353 2.484-2.85 4.365-5.502 5.34-9.275.313-1.227.267-4.217-.047-5.456z" fill="#FF4D00"/><path d="M25.594 34.491a7.846 7.846 0 00-2.752-4.276c-1.427-1.133-3.11-1.705-4.77-1.728a7.87 7.87 0 002.75 4.275 7.686 7.686 0 004.772 1.729z" fill="#fff"/><path d="M21.043 29.07s.999 3.038 1.335 3.365c.337-.84.604-3.06.604-3.06l-1.939-.304z" fill="#FF4D00"/><path d="M33.789 2.833c-1.8-.654-3.61-.595-5.352-.327-.371.07-1.01.339-1.3.339-.209-.21-.383-.42-.337-.537.732 0 .952-.164 1.382-.771.696 0 1.277.876 2.287-.14l.081-.024c.569.573 1.463.748 2.229.175.534.269.336.643 1.486.783-.117.222-.279.456-.476.502zm-.558.865l-.058.011c-.301-.081-.592-.163-.882-.233l-.011-.07c.22-.222.07-.362.07-.526.139 0 .789.094 1.067.28-.104.14-.232.222-.186.538zm-2.402-.841l-.07-.129c.232-.047.72-.07 1.08.082-.012.199-.024.385-.047.596l-.07.011c-.313-.035-.638-.058-.952-.081.07-.199.07-.35.059-.48zm-.58.502c-.314.012-.64.035-.953.07-.07-.21-.127-.42-.174-.619.314-.07.708-.07 1.103-.094l.046.059c-.232.269.058.409-.023.584zm.185.771c-.79 0-1.428-.117-2.043-.152l-.023-.035c.499-.245 3.738-.49 4.237.012-.186.175-2.009.175-2.171.175zM27.6 3.195c0-.186.825-.28 1.057-.315.011.199.035.397.058.607-.128.129-.848.2-.94.21-.047-.245-.012-.431-.175-.502zm6.838-1.577c-.128.748-1.254.21-1.254-.21.813-.269.104-.666.104-.7.093-.655-1.126-.211-.684.548-.302.608-1.649.304-1.8-.187.476-.233.279-.584-.046-.712-.023-.105-.058-.222-.07-.339-.348-.035-.43-.058-.43.327-.452.304-.44.386-.034.806-.279.56-1.59.526-1.811.082.441-.362.14-.596-.232-.63-.325-.737-1.207.793-.348.793 0 .514-.894.701-1.23.526-.059-.526-.291-.724-.64-.385-.348.07-.777-.304-.928.011.058.129 1.44 1.075 1.846 1.647.847 1.613 1.335 1.285 3.366 1.379.964-.023 2.299 0 3.32-.339.21-.432.418-.993.685-1.262.232-.584 1.59-1.18 1.59-1.471-.232-.094-1.311-.047-1.404.116z" fill="#272425"/><path d="M28.147 2.237l.105.14c.696-.14-.105-.817-.105-.14zm4.457.141h.116c.731-.48-.894-.526-.116 0zm-1.996-.643l-.22.024c-.093.14-.186.175.046.409.314.011.348-.292.174-.433zM12.998 15.25l-1.37-4.321-.453.152.708 3.656c.105.49-.104.993-.592 1.145l-.29.093-.22-.724.139-.035c.185-.058.209-.234.174-.386l-.824-4.252 1.927-.619 1.602 5.035-.801.257zm4.597-1.226l-.697-3.072-.302 3.306-.847.198-1.196-5.163.813-.187.708 3.06.302-3.293.847-.199 1.184 5.152-.812.198zm4.365-.736l-.708.105c-.488.082-.952-.268-1.033-.759l-.546-3.574c-.07-.503.267-.97.755-1.04l.708-.117a.921.921 0 011.033.76l.104.665-.824.129-.081-.514c-.023-.152-.15-.292-.325-.257l-.29.047c-.186.035-.256.198-.232.35l.499 3.27c.023.153.14.293.325.258l.29-.047c.186-.023.255-.198.232-.35l-.07-.444.825-.129.093.584c.07.514-.267.982-.755 1.063zm5.118-1.541l-.116-1.344a.901.901 0 00-.975-.83l-.766.07-.174-2.113-.825.07.441 5.268 1.59-.128a.922.922 0 00.825-.993zm-.836-.082c.012.152-.07.315-.255.327l-.557.047-.14-1.66.558-.046a.276.276 0 01.301.28l.093 1.052zm5.213.876l-.081-5.292-1.59.024a.91.91 0 00-.894.922l.011 1.052a.69.69 0 00.302.595c-.186.129-.29.328-.29.62l.035 2.114.835-.012-.023-1.962c0-.164.093-.316.279-.316l.545-.011.035 2.266h.836zm-.882-3.014l-.546.012c-.186 0-.278-.152-.29-.304l-.012-.9c0-.151.093-.303.279-.315l.546-.012.023 1.52zm6.165 3.271l.185-2.267-.998-.081-.186 2.266-.836-.07.43-5.269.836.059-.186 2.266.998.082.186-2.255.824.059-.418 5.28-.835-.07zm5.455-.128l.557-3.575a.902.902 0 00-.754-1.04l-.708-.117a.904.904 0 00-1.033.76l-.558 3.574a.908.908 0 00.755 1.04l.708.105a.887.887 0 001.033-.748zm-.8-.281c-.024.152-.152.28-.326.257l-.29-.047c-.186-.035-.255-.199-.232-.35l.51-3.271c.024-.152.14-.292.325-.257l.29.046c.186.036.256.2.233.35l-.51 3.272zm5.767-.876l.302-1.32a.9.9 0 00-.673-1.086l-1.555-.363-1.196 5.152.813.187.476-2.068.742.175a.906.906 0 001.092-.677zm-.777-.339c-.035.152-.163.28-.348.234l-.546-.129.372-1.623.545.128c.174.035.244.222.209.362l-.232 1.028zm4.62 4.649l.627-5.35-1.114-.35-2.543 4.743.79.257.44-.818 1.104.35-.105.923.801.245zm-.603-1.927l-.825-.269 1.057-1.974.011-.058.035.011-.023.059-.255 2.231z" fill="#272425"/><path d="M22.854 51.768l-.046-.105c-.244-.526-.302-1.051-.302-1.542 0-.304.023-.607.058-.876 0-.14.023-.315.035-.467-.267-.269-.58-.55-.929-.853a19.44 19.44 0 01-1.428-1.343l-.209-.222-.128-.292c-.046-.106-.058-.2-.104-.304-2.82 1.308-5.003 1.577-6.768.83-.963-.41-2.263-1.344-2.983-3.494-.14-.397-.197-.864-.232-1.343-1.103 1.425-1.741 3.4-1.915 5.374a6.566 6.566 0 00-.035.665c0 2.208.963 3.844 1.81 4.848 1.811 2.138 4.702 3.388 7.767 3.353 2.368-.035 4.747-.526 7.08-1.437-.324-.63-.72-1.261-1.125-1.916l-.546-.876z" fill="#fff"/></g><defs><clipPath id="clip0"><path fill="#fff" d="M0 0h62v58H0z"/></clipPath></defs></svg>