<svg width="259" height="286" fill="none" xmlns="http://www.w3.org/2000/svg"><path d="M180.098 183.482c-.558-9.103 11.431-11.31 12.546-.552 2.788 23.449 8.643 83.312 9.201 91.588.836 10.207-9.48 14.897-17.844 6.345-1.952-2.207-55.204-56.553-59.107-60.691-3.903-4.413-6.134-4.413-11.152-2.482-2.231.827-57.434 21.241-82.806 30.621-17.843 6.621-25.65-5.242-16.728-17.931C27.033 211.896 63 162.516 64.114 160.585c3.067-4.689 2.788-7.448-2.509-13.793-3.903-4.69-38.196-40.828-45.445-49.38C10.305 90.239-1.963 80.584.268 70.377c1.673-8 8.922-11.31 16.45-9.931 9.758 1.655 69.98 20.414 86.987 23.724 3.624.828 5.855-3.586 11.71-12.69 18.68-28.966 34.851-52.414 42.378-62.345 10.316-13.518 24.535-9.656 25.929 7.448 1.673 22.07 5.576 65.656 7.807 85.243.557 5.517 2.788 9.103 7.528 10.759 14.219 4.965 23.977 9.103 59.107 14.345.557 0 .836.551.836 1.103-2.23 12.69-1.673 23.449-1.394 27.035 0 .552-.558 1.103-1.115.828-18.68-3.311-57.156-10.483-80.575-22.621-5.855-3.035-10.037-8.552-11.431-15.173-1.116-5.517-3.346-48.829-4.182-64.553-9.759 14.897-32.063 49.38-33.457 51.587-3.346 4.966-11.989 10.207-23.978 6.897-5.854-1.655-42.936-12.414-54.088-15.725 8.364 10.759 35.687 39.725 39.033 43.863 4.182 4.966 7.528 10.483 7.249 15.725-.279 5.517-5.019 10.207-8.085 14.62-3.904 5.794-31.784 38.622-39.033 49.381 13.94-4.966 58.549-22.621 65.24-25.104 9.759-3.311 16.171-.828 20.353 4.414 11.152 13.241 41.263 43.862 49.07 54.621l-2.509-70.346z" fill="#F1C400"/></svg>