<svg width="166" height="29" fill="none" xmlns="http://www.w3.org/2000/svg"><path d="M43.743 9.533c0-1.518.75-2.01 1.786-2.01h.463c1.08 0 1.83.47 1.83 2.01v9.733c0 3.483 1.742 5.537 4.763 5.537 2.491 0 4.431-1.429 5.468-3.55V9.533c0-1.518.75-2.01 1.786-2.01h.463c1.08 0 1.83.47 1.83 2.01v17.971c0 .313-.662.58-1.456.58-1.234 0-2.535-.58-2.601-3.192-1.411 2.054-3.572 3.528-6.637 3.528-5.27 0-7.672-3.617-7.672-8.64V9.533h-.023zm21.431 16.565c0 1.518.75 1.964 1.83 1.964h.463c1.037 0 1.83-.469 1.83-1.964v-7.1c0-4.665 1.279-7.836 4.52-7.836 1.125 0 1.896.38 2.536.871.088.09 1.234-.536 1.234-2.143 0-1.674-1.19-2.68-3.263-2.68-2.535 0-4.189 1.34-5.049 3.818-.044-2.857-1.367-3.527-2.58-3.527-.837 0-1.499.246-1.499.58v18.017h-.022zM88.06 7.21c-6.173 0-10.473 4.398-10.473 10.582 0 6.25 4.278 10.649 10.451 10.649 6.13 0 10.45-4.398 10.45-10.582-.021-6.184-4.343-10.65-10.428-10.65zm-.044 17.837c-3.814 0-6.68-3.103-6.68-7.255 0-4.152 2.866-7.166 6.68-7.166 3.858 0 6.636 3.058 6.636 7.255 0 4.108-2.822 7.166-6.636 7.166zm12.7 1.05c0 1.518.749 1.964 1.83 1.964h.463c1.036 0 1.83-.469 1.83-1.964V14.4c.992-2.099 2.976-3.528 5.6-3.528 2.91 0 4.608 2.099 4.608 5.492v9.734c0 1.518.75 1.964 1.83 1.964h.463c1.036 0 1.83-.469 1.83-1.964V15.85c0-5.001-2.447-8.64-7.717-8.64-3.065 0-5.269 1.518-6.636 3.572-.133-2.634-1.367-3.282-2.558-3.282-.838 0-1.499.268-1.499.58v18.017h-.044zM121.97 2.344c0 1.474.904 2.3 2.447 2.3 1.566 0 2.448-.804 2.448-2.3 0-1.518-.882-2.344-2.403-2.344-1.566 0-2.492.848-2.492 2.344zm.375 23.754c0 1.518.794 1.964 1.874 1.964h.419c1.08 0 1.83-.469 1.83-1.964V9.533c0-1.563-.75-2.01-1.83-2.01h-.419c-1.08 0-1.874.514-1.874 2.01v16.565zM139.344 7.21c-5.975 0-10.363 4.443-10.363 10.582 0 6.206 4.344 10.649 10.363 10.649 5.887 0 8.533-3.684 8.533-5.537 0-1.808-2.315-2.098-2.448-1.897-.904 2.232-2.646 3.951-6.019 3.951-3.77 0-6.548-3.014-6.548-7.166 0-4.108 2.822-7.1 6.548-7.1 3.396 0 5.093 1.72 6.019 3.952.133.201 2.448-.134 2.448-1.853 0-1.875-2.602-5.581-8.533-5.581zm11.553 15.025c-.22-.023-1.587.647-1.587 1.897 0 1.92 2.866 4.287 8.422 4.287 5.137 0 8.29-2.479 8.29-6.34 0-4.354-4.277-5.292-7.342-5.961-3.263-.715-5.005-1.139-5.005-2.992 0-1.674 1.5-2.768 4.3-2.768 2.513 0 4.586 1.16 5.82 2.835l.022.022c.177.067 1.654-.692 1.654-1.942 0-1.898-2.58-4.063-7.673-4.063-4.85 0-7.959 2.567-7.959 6.34 0 4.287 4.057 5.202 7.011 5.827 3.263.714 5.137 1.094 5.137 3.148 0 1.674-1.565 2.723-4.387 2.723-3.131 0-5.358-1.294-6.703-2.991.022-.022 0-.022 0-.022zM39.532 17.503c1.985-.67 1.963-1.608 1.742-2.612-.617-3.304-3.263-7.658-9.128-7.658-5.887 0-10.186 4.577-10.186 10.694 0 6.296 4.233 10.537 10.517 10.537 5.424 0 8.488-2.813 8.488-4.576 0-1.608-1.697-2.054-2.072-2.077a.121.121 0 00-.11.067c-1.037 1.786-2.778 3.305-6.218 3.305-3.748 0-6.46-2.479-6.79-6.162-.089-.96-.089-1.92.043-2.902.508-3.35 3.021-5.738 6.306-5.738 2.91 0 4.895 1.764 5.468 4.554 0 .045-.022.112-.066.134C34.175 16.632 28 16.543 27.45 16.52c-.022 0-.044.023-.044.045-.154.714-.132 1.83 0 2.545 0 .022.022.045.066.045 3.858.178 7.607-.179 12.06-1.652z" fill="#1D428A"/><path d="M14.243 20.762c-.044-.737.904-.915.992-.044.22 1.897.684 6.742.728 7.411.066.826-.75 1.206-1.411.514-.154-.179-4.366-4.577-4.674-4.912-.309-.357-.485-.357-.882-.2l-6.549 2.478c-1.41.535-2.028-.425-1.322-1.452 1.014-1.495 3.858-5.492 3.946-5.648.243-.38.22-.603-.198-1.116-.309-.38-3.02-3.304-3.594-3.996-.463-.58-1.433-1.362-1.257-2.188.132-.648.706-.915 1.301-.804.772.134 5.534 1.652 6.879 1.92.287.067.463-.29.926-1.027 1.477-2.344 2.756-4.242 3.351-5.045.816-1.094 1.94-.782 2.05.603.133 1.786.442 5.313.618 6.898.044.446.22.737.595.87 1.125.403 1.897.737 4.675 1.162.044 0 .066.044.066.089a9.319 9.319 0 00-.11 2.188c0 .044-.045.089-.089.067-1.477-.268-4.52-.849-6.372-1.831a1.784 1.784 0 01-.904-1.228c-.088-.446-.264-3.951-.33-5.224a871.528 871.528 0 00-2.646 4.175c-.265.402-.948.826-1.896.558a750.75 750.75 0 01-4.277-1.273c.661.871 2.822 3.215 3.086 3.55.331.402.596.848.574 1.273-.023.446-.397.826-.64 1.183-.309.469-2.513 3.125-3.087 3.996 1.103-.402 4.63-1.83 5.16-2.032.771-.267 1.278-.067 1.61.358.881 1.071 3.262 3.55 3.88 4.42l-.199-5.693z" fill="#F1C400"/></svg>